<svg xmlns="http://www.w3.org/2000/svg" width="29.25" height="29.25" viewBox="0 0 29.25 29.25">
  <g id="ic_cr-arrow" transform="translate(-3.375 -3.375)">
    <path id="Path_35097" data-name="Path 35097" d="M14.815,10.378a1.362,1.362,0,0,1,1.92,0l6.708,6.729a1.356,1.356,0,0,1,.042,1.87l-6.609,6.63a1.355,1.355,0,1,1-1.92-1.912l5.618-5.7-5.759-5.7A1.341,1.341,0,0,1,14.815,10.378Z" fill="#5d6471"/>
    <path id="Path_35098" data-name="Path 35098" d="M3.375,18A14.625,14.625,0,1,0,18,3.375,14.623,14.623,0,0,0,3.375,18Zm2.25,0A12.37,12.37,0,0,1,26.747,9.253,12.37,12.37,0,1,1,9.253,26.747,12.269,12.269,0,0,1,5.625,18Z" fill="#5d6471"/>
  </g>
</svg>
